TITLE ""
FILE "Step3_Track04.mp3" MP3
  TRACK 01 AUDIO
    TITLE "Step3_Track04_01"
    INDEX 01 00:00:00
  TRACK 02 AUDIO
    TITLE "Step3_Track04_02"
    INDEX 01 00:00:22
  TRACK 03 AUDIO
    TITLE "Step3_Track04_03"
    INDEX 01 00:01:47
  TRACK 04 AUDIO
    TITLE "Step3_Track04_04"
    INDEX 01 00:02:25
  TRACK 05 AUDIO
    TITLE "Step3_Track04_05"
    INDEX 01 00:03:20
  TRACK 06 AUDIO
    TITLE "Step3_Track04_06"
    INDEX 01 00:03:50
  TRACK 07 AUDIO
    TITLE "Step3_Track04_07"
    INDEX 01 00:06:58
  TRACK 08 AUDIO
    TITLE "Step3_Track04_08"
    INDEX 01 00:07:08
  TRACK 09 AUDIO
    TITLE "Step3_Track04_09"
    INDEX 01 00:08:00
  TRACK 10 AUDIO
    TITLE "Step3_Track04_10"
    INDEX 01 00:08:24
  TRACK 11 AUDIO
    TITLE "Step3_Track04_11"
    INDEX 01 00:11:22
  TRACK 12 AUDIO
    TITLE "Step3_Track04_12"
    INDEX 01 00:11:61
  TRACK 13 AUDIO
    TITLE "Step3_Track04_13"
    INDEX 01 00:12:55
  TRACK 14 AUDIO
    TITLE "Step3_Track04_14"
    INDEX 01 00:13:03
  TRACK 15 AUDIO
    TITLE "Step3_Track04_15"
    INDEX 01 00:15:57
  TRACK 16 AUDIO
    TITLE "Step3_Track04_16"
    INDEX 01 00:16:29
  TRACK 17 AUDIO
    TITLE "Step3_Track04_17"
    INDEX 01 00:17:21
  TRACK 18 AUDIO
    TITLE "Step3_Track04_18"
    INDEX 01 00:17:38
  TRACK 19 AUDIO
    TITLE "Step3_Track04_19"
    INDEX 01 00:20:29
  TRACK 20 AUDIO
    TITLE "Step3_Track04_20"
    INDEX 01 00:20:58
  TRACK 21 AUDIO
    TITLE "Step3_Track04_21"
    INDEX 01 00:21:50
  TRACK 22 AUDIO
    TITLE "Step3_Track04_22"
    INDEX 01 00:22:04
  TRACK 23 AUDIO
    TITLE "Step3_Track04_23"
    INDEX 01 00:25:08
  TRACK 24 AUDIO
    TITLE "Step3_Track04_24"
    INDEX 01 00:25:30
  TRACK 25 AUDIO
    TITLE "Step3_Track04_25"
    INDEX 01 00:26:31
  TRACK 26 AUDIO
    TITLE "Step3_Track04_26"
    INDEX 01 00:26:41
  TRACK 27 AUDIO
    TITLE "Step3_Track04_27"
    INDEX 01 00:28:50
  TRACK 28 AUDIO
    TITLE "Step3_Track04_28"
    INDEX 01 00:28:67
  TRACK 29 AUDIO
    TITLE "Step3_Track04_29"
    INDEX 01 00:29:73
  TRACK 30 AUDIO
    TITLE "Step3_Track04_30"
    INDEX 01 00:30:23
  TRACK 31 AUDIO
    TITLE "Step3_Track04_31"
    INDEX 01 00:32:01
  TRACK 32 AUDIO
    TITLE "Step3_Track04_32"
    INDEX 01 00:32:30
  TRACK 33 AUDIO
    TITLE "Step3_Track04_33"
    INDEX 01 00:33:22
  TRACK 34 AUDIO
    TITLE "Step3_Track04_34"
    INDEX 01 00:33:61
  TRACK 35 AUDIO
    TITLE "Step3_Track04_35"
    INDEX 01 00:35:64
  TRACK 36 AUDIO
    TITLE "Step3_Track04_36"
    INDEX 01 00:36:08
  TRACK 37 AUDIO
    TITLE "Step3_Track04_37"
    INDEX 01 00:37:11
  TRACK 38 AUDIO
    TITLE "Step3_Track04_38"
    INDEX 01 00:37:21
  TRACK 39 AUDIO
    TITLE "Step3_Track04_39"
    INDEX 01 00:39:51
  TRACK 40 AUDIO
    TITLE "Step3_Track04_40"
    INDEX 01 00:40:08
  TRACK 41 AUDIO
    TITLE "Step3_Track04_41"
    INDEX 01 00:41:01
  TRACK 42 AUDIO
    TITLE "Step3_Track04_42"
    INDEX 01 00:41:31
  TRACK 43 AUDIO
    TITLE "Step3_Track04_43"
    INDEX 01 00:43:67
